<!--?xml version="1.0" encoding="utf-8"?-->
<!-- Generator: Adobe Illustrator 18.1.1, SVG Export Plug-In . SVG Version: 6.00 Build 0)  -->

<svg version="1.1" id="_x32_" xmlns="http://www.w3.org/2000/svg" xmlns:xlink="http://www.w3.org/1999/xlink" x="0px" y="0px" viewBox="0 0 512 512" style="width: 512px; height: 512px; opacity: 1;" xml:space="preserve">
<style type="text/css">
	.st0{fill:#4B4B4B;}
</style>
<g>
	<path class="st0" d="M181.158,225.346l64.826,50.011l0.902,0.517l0.404,0.226c5.606,3.122,13.027,1.467,17.975-3.979l0.432-0.414
		l79.452-94.002c4.524-5.07,4.599-12.369,0.198-16.282c-4.411-3.922-11.644-2.981-16.15,2.088l-74.268,79.339l-57.338-39.928
		c-5.362-3.95-13.403-2.116-17.947,4.082C175.11,213.184,175.777,221.405,181.158,225.346z" style="fill: rgb(75, 75, 75);"></path>
	<path class="st0" d="M100.445,255.99c0-3.434,0.075-6.866,0.438-10.234H60.188c-0.249,3.367-0.315,6.8-0.315,10.234
		c0,3.499,0.066,6.876,0.315,10.252h40.695C100.52,262.866,100.445,259.442,100.445,255.99z" style="fill: rgb(75, 75, 75);"></path>
	<path class="st0" d="M172.42,124.797c3.847-2.436,7.774-4.731,11.762-6.772l1.552-0.753l-20.28-35.215
		c-5.074,2.558-10.017,5.398-14.814,8.512l20.289,35.234L172.42,124.797z" style="fill: rgb(75, 75, 75);"></path>
	<path class="st0" d="M82.071,165.44l35.23,20.279l8.527-14.795l-35.244-20.289C87.47,155.432,84.634,160.361,82.071,165.44z" style="fill: rgb(75, 75, 75);"></path>
	<path class="st0" d="M393.985,327.814c-2.116,3.998-4.341,7.91-6.844,11.701l-1.015,1.486l35.24,20.288
		c3.118-4.797,5.958-9.66,8.582-14.73l-35.15-20.355L393.985,327.814z" style="fill: rgb(75, 75, 75);"></path>
	<path class="st0" d="M118.044,327.748l-0.814-1.543l-35.159,20.28c2.502,5.07,5.398,10.008,8.512,14.805l35.244-20.288
		l-1.026-1.486C122.371,335.724,120.076,331.812,118.044,327.748z" style="fill: rgb(75, 75, 75);"></path>
	<path class="st0" d="M172.42,387.127l-1.491-1.015l-20.289,35.243c4.798,3.114,9.74,6.02,14.814,8.588l20.28-35.234l-1.552-0.752
		C180.193,391.924,176.266,389.629,172.42,387.127z" style="fill: rgb(75, 75, 75);"></path>
	<path class="st0" d="M326.214,117.216l14.81,8.588l20.284-35.234c-4.793-3.114-9.674-5.954-14.73-8.512L326.214,117.216z" style="fill: rgb(75, 75, 75);"></path>
	<path class="st0" d="M245.771,411.121v40.644c3.377,0.3,6.8,0.366,10.229,0.366c3.442,0,6.871-0.066,10.238-0.366v-40.644v-0.423
		h-20.467V411.121z" style="fill: rgb(75, 75, 75);"></path>
	<path class="st0" d="M266.238,100.878V60.235c-3.367-0.302-6.796-0.367-10.238-0.367c-3.429,0-6.852,0.065-10.229,0.367v40.643
		v0.423h20.467V100.878z" style="fill: rgb(75, 75, 75);"></path>
	<path class="st0" d="M326.214,394.774l20.364,35.168c5.056-2.643,9.937-5.474,14.73-8.588l-20.284-35.243L326.214,394.774z" style="fill: rgb(75, 75, 75);"></path>
	<path class="st0" d="M429.948,165.44c-2.572-5.079-5.465-10.007-8.582-14.805l-35.24,20.289l8.601,14.795L429.948,165.44z" style="fill: rgb(75, 75, 75);"></path>
	<path class="st0" d="M451.826,245.757h-40.69h-0.423v20.486h0.423h40.69c0.254-3.376,0.311-6.8,0.311-10.252
		C452.136,252.557,452.08,249.124,451.826,245.757z" style="fill: rgb(75, 75, 75);"></path>
	<path class="st0" d="M256,0C114.606,0.009,0.014,114.61,0.005,256C0.014,397.39,114.606,511.99,256,512
		c141.394-0.01,255.986-114.61,255.995-256C511.986,114.61,397.394,0.009,256,0z M256,478.966
		c-61.627-0.01-117.268-24.926-157.661-65.305C57.964,373.254,33.043,317.617,33.038,256c0.005-61.618,24.926-117.263,65.3-157.652
		C138.732,57.958,194.373,33.042,256,33.033c61.618,0.01,117.258,24.926,157.661,65.315c40.375,40.389,65.296,96.024,65.3,157.652
		c-0.005,61.617-24.926,117.254-65.3,157.661C373.258,454.041,317.618,478.957,256,478.966z" style="fill: rgb(75, 75, 75);"></path>
</g>
</svg>
